<svg xmlns="http://www.w3.org/2000/svg" viewBox="0 0 512 512">
  <rect width="512" height="512" rx="64" fill="#0c4a1f"/>
  <g transform="translate(256,256)">
    <!-- Leaf shape -->
    <path d="M-20,100 Q-20,-40 100,-120 Q40,-60 20,0 Q60,-40 120,-60 Q40,20 -10,60 Q10,40 50,30 Q0,70 -30,90 Z"
          fill="#ffffff" opacity="0.95"
          transform="rotate(-15)"/>
    <!-- Leaf vein -->
    <path d="M-10,85 Q10,10 90,-90"
          fill="none" stroke="#0c4a1f" stroke-width="3" opacity="0.3"
          transform="rotate(-15)"/>
    <!-- Small secondary leaf -->
    <path d="M-60,60 Q-80,10 -40,-30 Q-40,10 -20,30 Q-50,10 -70,0 Q-50,30 -40,50 Z"
          fill="#ffffff" opacity="0.7"
          transform="rotate(-15)"/>
  </g>
  <!-- Text -->
  <text x="256" y="440" text-anchor="middle"
        font-family="system-ui, -apple-system, sans-serif"
        font-weight="700" font-size="72" fill="#ffffff"
        letter-spacing="4">ERP</text>
</svg>
